<?xml version="1.0" encoding="utf-8"?>
<!-- Generator: Adobe Illustrator 16.0.0, SVG Export Plug-In . SVG Version: 6.00 Build 0)  -->
<!DOCTYPE svg PUBLIC "-//W3C//DTD SVG 1.1//EN" "http://www.w3.org/Graphics/SVG/1.1/DTD/svg11.dtd">
<svg version="1.1" id="LogoGroup" xmlns="http://www.w3.org/2000/svg" xmlns:xlink="http://www.w3.org/1999/xlink" x="0px" y="0px"
	 width="367.646px" height="191.176px" viewBox="0 0 367.646 191.176" enable-background="new 0 0 367.646 191.176"
	 xml:space="preserve">
<polygon id="Bg" fill="#EC7D24" points="283.118,39.187 342.918,146.902 177.317,139.236 46.984,163.77 23.984,51.837 "/>
<g id="LogoContent">
	<polygon opacity="0.6" fill="#FDD600" enable-background="new    " points="37.111,113.755 316.577,101.18 294.677,61.73 
		25.389,60.396 	"/>
	<polygon opacity="0.5" fill="#FDD600" enable-background="new    " points="85.607,48.828 114.35,151.09 166.105,141.348 
		125.856,46.863 	"/>
	<polygon opacity="0.3" fill="#FFCD3E" enable-background="new    " points="179.475,139.336 164.65,44.969 191.122,43.678 
		195.122,140.061 	"/>
	<polygon opacity="0.8" fill="#F04925" enable-background="new    " points="61.359,50.012 80.608,157.439 83.836,156.832 
		67.511,49.711 	"/>
	<polygon opacity="0.4" fill="#C03B27" enable-background="new    " points="198.176,140.061 198.176,42.778 209.534,42.778 
		204.786,140.508 	"/>
	<polyline opacity="0.4" fill="#EB4824" enable-background="new    " points="233.774,41.595 225.331,141.348 270.754,143.113 
		248.043,40.898 	"/>
</g>
<text transform="matrix(1 0 0 1 114.1179 84.981)" fill="#C83428" font-family="'CubicSub'" font-size="21">Yvan Richer</text>
<polygon id="LogoArea" display="none" fill-opacity="0" points="283.118,38.852 342.918,146.568 177.317,138.902 46.984,163.436 
	23.984,51.502 "/>
<polygon opacity="0.5" fill="#B94430" points="335.18,132.964 316.577,99.456 32.163,91.643 42.204,140.508 "/>
<polygon fill="none" points="363.265,139.087 72.597,136.754 72.597,108.754 358.598,108.754 "/>
<text transform="matrix(1 0 0 1 72.5974 123.6641)"><tspan x="0" y="0" fill="#FFC83F" font-family="'CubicSub'" font-size="21">Gestion de l</tspan><tspan x="124.655" y="0" fill="#FFC83F" font-family="'MyriadPro-Regular'" font-size="21">’</tspan><tspan x="129.001" y="0" fill="#FFC83F" font-family="'CubicSub'" font-size="21">Innovation</tspan></text>
</svg>
